<?xml version="1.0" encoding="UTF-8"?>
<svg id="Camada_4" data-name="Camada 4" xmlns="http://www.w3.org/2000/svg" viewBox="0 0 323.57 177.02">
  <defs>
    <style>
      .cls-1 {
        fill: #00b4f0;
      }

      .cls-2 {
        fill: #00283f;
      }

      .cls-3 {
        fill: none;
      }
    </style>
  </defs>
  <path class="cls-2" d="M121.12,76.28l-3.69-6.57c-.19-.33-.39-.65-.59-.97v-29.17c0-11.07-8.42-20.08-18.77-20.08h-14.84c-10.35,0-18.77,9.01-18.77,20.08v12.06c0,10.48,7.99,19.01,17.8,19.01h17.12c3.17,0,6.17,1.84,7.83,4.81l3.7,6.57c1.08,1.91,3.07,2.99,5.11,2.99.97,0,1.96-.24,2.87-.75,2.82-1.58,3.82-5.16,2.23-7.98ZM82.26,58.93c-3.35,0-6.08-3.27-6.08-7.29v-12.06c0-4.61,3.16-8.36,7.05-8.36h14.84c3.89,0,7.05,3.75,7.05,8.36v20.2c-1.85-.55-3.78-.85-5.74-.85h-17.12Z"/>
  <g>
    <path class="cls-3" d="M231,39.4c0-4.62-3.17-8.36-7.05-8.36h-14.84c-3.89,0-7.05,3.74-7.05,8.36v12.05c0,4.02,2.73,7.28,6.09,7.28h17.11c1.97,0,3.9.31,5.75.86v-20.19Z"/>
    <path class="cls-2" d="M223.94,19.32h-14.84c-10.36,0-18.77,9.01-18.77,20.09v12.05c0,10.49,7.98,19.01,17.8,19.01h17.11c2.11,0,4.13.82,5.75,2.23l.33.31c.31.29.83.76,1.36,1.21,0,0,1.25,1.01,1.74,1.21.75.34,1.56.54,2.43.54,3.23,0,5.87-2.62,5.87-5.86v-30.71c0-11.08-8.43-20.09-18.78-20.09ZM208.14,58.74c-3.36,0-6.09-3.26-6.09-7.28v-12.05c0-4.62,3.17-8.36,7.05-8.36h14.84c3.89,0,7.05,3.74,7.05,8.36v20.19c-1.85-.54-3.78-.86-5.75-.86h-17.11Z"/>
  </g>
  <path class="cls-2" d="M133.24,19.65c3.58,0,6.48,2.9,6.48,6.48v23.53c0,4.52,3.3,8.19,7.37,8.19h13.17c4.06,0,7.37-3.67,7.37-8.19v-23.53c0-3.57,2.9-6.48,6.47-6.48s6.47,2.9,6.47,6.48v23.53c0,11.66-9.11,21.15-20.32,21.15h-13.17c-11.2,0-20.32-9.49-20.32-21.15v-23.53c0-3.57,2.9-6.48,6.47-6.48Z"/>
  <path class="cls-2" d="M35.62.17c.14.02.27.05.41.08-.15-.03-.31-.05-.48-.08-.11-.02-.22-.03-.33-.05-.22-.03-.45-.06-.67-.08-.35-.02-.69-.03-1.05-.03-.01,0-.03-.02-.03-.02h-13.17s-.03.02-.03.02c-.35,0-.69.02-1.05.03-.18.02-.37.03-.54.06-.23.03-.46.06-.69.09h-.01C7.88,1.6,0,11.91,0,24.43v38.89c0,4.13,2.89,7.48,6.47,7.48s6.4-3.28,6.47-7.34v-8.03h27.93v8.06c.08,4.05,2.94,7.31,6.47,7.31s6.47-3.36,6.47-7.48V24.43C53.8,11.83,45.81,1.47,35.62.17ZM12.94,41.89v-11.34c0-.13,0-.25.01-.38v-5.74c0-5.22,3.3-9.46,7.37-9.46h13.17c4.06,0,7.37,4.24,7.37,9.46v5.74c0,.13.01.25.01.38v11.34H12.94Z"/>
  <path class="cls-1" d="M66.97,93.11c.4.12.8.23,1.2.4.4.17.74.34,1.15.57.34.23.69.52.97.8,1.2,1.21,1.89,2.93,1.89,4.59s-.69,3.38-1.89,4.58c-1.2,1.2-2.87,1.89-4.59,1.89-.86,0-1.72-.17-2.46-.46-.8-.35-1.55-.8-2.12-1.43-1.2-1.2-1.89-2.87-1.89-4.58s.69-3.38,1.89-4.59c1.49-1.49,3.73-2.18,5.85-1.77"/>
  <path class="cls-1" d="M65.71,163.08c-3.58,0-6.48-2.91-6.48-6.48v-38.23c0-3.58,2.9-6.48,6.48-6.48s6.48,2.91,6.48,6.48v38.23c0,3.58-2.9,6.48-6.48,6.48Z"/>
  <path class="cls-1" d="M128.23,163.04c-3.57,0-6.47-2.9-6.47-6.47v-23.51c0-4.52-3.3-8.19-7.36-8.19h-13.16c-4.06,0-7.36,3.67-7.36,8.19v23.51c0,3.57-2.9,6.47-6.47,6.47s-6.47-2.9-6.47-6.47v-23.51c0-11.65,9.1-21.13,20.3-21.13h13.16c11.2,0,20.3,9.48,20.3,21.13v23.51c0,3.57-2.9,6.47-6.47,6.47Z"/>
  <path class="cls-1" d="M44.14,150.28h-23.24c-4.47,0-8.1-3.26-8.1-7.27v-38.08c0-1.77-.72-3.37-1.88-4.53-1.16-1.16-2.76-1.88-4.53-1.88-3.53,0-6.4,2.87-6.4,6.4v38.08c0,11.06,9.38,20.07,20.9,20.07h23.24c3.53,0,6.4-2.87,6.4-6.4s-2.87-6.4-6.4-6.4Z"/>
  <path class="cls-1" d="M192.12,152.06c-7.95-8.26-15.9-16.51-23.85-24.77-6.36-8.06-17.16,2.21-9.42,8.92,7.81,8.11,15.62,16.22,23.43,24.33,5.39,7.17,16.25-2.02,9.84-8.48Z"/>
  <path class="cls-1" d="M193.95,104.98c-.2-6.83-8.56-8.66-12.31-3.29-.56.58-1.12,1.17-1.69,1.75-1.12,1.16-2.23,2.32-3.35,3.49-3.57,3.71-7.13,7.43-10.7,11.14-1.44,1.51-2.89,3.01-4.34,4.52-.87.9-1.73,1.81-2.6,2.71-8.01,6.87,3.04,17.27,9.44,8.89.56-.58,1.12-1.16,1.67-1.75,2.83-2.94,5.66-5.89,8.49-8.84,2.82-2.94,5.63-5.87,8.45-8.8,1.13-1.18,2.26-2.35,3.38-3.53,1.74-1.7,3.65-3.63,3.54-6.3Z"/>
  <rect class="cls-1" x="143.39" y="98.56" width="12.8" height="64.52" rx="6.4" ry="6.4"/>
  <path class="cls-2" d="M319.9,168.26c1.59,2.83.59,6.41-2.24,8-.91.51-1.9.76-2.87.76-2.05,0-4.05-1.08-5.12-2.99l-3.7-6.58c-1.67-2.98-4.68-4.82-7.85-4.82h-17.15c-9.83,0-17.84-8.55-17.84-19.05v-24.89c0-11.09,8.44-20.12,18.81-20.12h14.87c10.37,0,18.81,9.03,18.81,20.12v19.11c0,3.24-2.63,5.87-5.87,5.87s-5.87-2.63-5.87-5.87v-19.11c0-4.62-3.17-8.37-7.07-8.37h-14.87c-3.9,0-7.07,3.75-7.07,8.37v24.89c0,4.03,2.73,7.3,6.09,7.3h17.15c7.41,0,14.34,4.14,18.09,10.81l3.7,6.58"/>
  <path class="cls-2" d="M249.95,136.49h-28.16c-3.28,0-5.93-2.66-5.93-5.93s2.66-5.93,5.93-5.93h28.16c3.28,0,5.93,2.66,5.93,5.93s-2.65,5.93-5.93,5.93Z"/>
  <path class="cls-2" d="M221.79,136.49h28.16c3.28,0,5.93-2.66,5.93-5.93s-2.65-5.93-5.93-5.93h-28.16c-.18,0-.36.01-.54.03v-5.79c0-4.67,3.2-8.46,7.14-8.46h21.56c3.28,0,5.93-2.66,5.93-5.93s-2.65-5.93-5.93-5.93h-21.56c-10.48,0-19.01,9.12-19.01,20.33v24.47c0,10.61,8.09,19.25,18.02,19.25h22.54c3.28,0,5.93-2.66,5.93-5.93s-2.65-5.93-5.93-5.93h-22.54c-3.4,0-6.16-3.31-6.16-7.38v-6.86c.18.02.35.03.54.03Z"/>
</svg>