<?xml version="1.0" encoding="UTF-8"?>
<svg id="Layer_1-4" data-name="Layer 1" xmlns="http://www.w3.org/2000/svg" viewBox="0 0 596.07 592.79">
  <defs>
    <style>
      .cls-1 {
        fill: #00b4f0;
      }

      .cls-2 {
        fill: #00283f;
      }

      .cls-3 {
        fill: #00749e;
      }
    </style>
  </defs>
  <path class="cls-3" d="M596.07,296.79h-.02c-.53-26.85-21.71-53.67-63.81-52.13-18.15.66-33.4,9.7-50.12,19.43-40.11,23.33-89.89,23.33-130,0-9.13-5.31-17.82-10.36-26.78-14.01-2.18-.92-4.42-1.74-6.82-2.44-5.31-1.65-10.76-2.77-16.52-2.99-1.43-.05-2.63.18-4.01.19-1.38-.01-2.58-.24-4.01-.19-5.76.21-11.2,1.33-16.52,2.98-2.4.7-4.66,1.52-6.84,2.45-8.95,3.65-17.64,8.7-26.76,14-40.11,23.33-89.89,23.33-130,0-16.72-9.73-31.97-18.77-50.12-19.43C21.64,243.12.45,269.94-.07,296.79h-.02s0,.04,0,.06,0,.04,0,.06h.02c.53,26.85,21.71,53.67,63.81,52.13,18.15-.67,33.4-9.71,50.12-19.43,40.11-23.33,89.89-23.33,130,0,9.12,5.31,17.81,10.35,26.76,14,2.18.92,4.43,1.75,6.84,2.45,5.31,1.65,10.76,2.77,16.52,2.99,1.43.05,2.63-.18,4.01-.19,1.38.01,2.58.24,4.01.19,5.76-.21,11.21-1.33,16.52-2.99,2.4-.7,4.65-1.52,6.83-2.44,8.96-3.65,17.65-8.7,26.78-14.01,40.11-23.33,89.89-23.33,130,0,16.72,9.73,31.97,18.77,50.12,19.43,42.1,1.54,63.28-25.28,63.81-52.13h.02s0-.04,0-.06,0-.04,0-.06Z"/>
  <path class="cls-1" d="M413.11,471.11c42.1,1.54,63.28-25.28,63.81-52.13h.02s0-.04,0-.06,0-.04,0-.07h-.02c-.53-26.85-21.71-53.67-63.81-52.13-18.15.67-33.4,9.7-50.12,19.43-40.11,23.33-89.89,23.34-130,0-16.72-9.73-31.97-18.77-50.12-19.43-42.1-1.54-63.28,25.28-63.81,52.13h-.02s0,.04,0,.07,0,.04,0,.06h.02c.53,26.85,21.71,53.67,63.81,52.13,18.15-.67,33.4-9.71,50.12-19.43,40.11-23.33,89.89-23.33,130,0,16.72,9.73,31.97,18.77,50.12,19.43Z"/>
  <path class="cls-2" d="M413.11,227c42.1,1.54,63.28-25.28,63.81-52.13h.02s0-.04,0-.06,0-.04,0-.07h-.02c-.53-26.85-21.71-53.67-63.81-52.13-18.15.67-33.4,9.7-50.12,19.43-40.11,23.33-89.89,23.34-130,0-16.72-9.73-31.97-18.77-50.12-19.43-42.1-1.54-63.28,25.28-63.81,52.13h-.02s0,.04,0,.07,0,.04,0,.06h.02c.53,26.85,21.71,53.67,63.81,52.13,18.15-.67,33.4-9.71,50.12-19.43,40.11-23.33,89.89-23.33,130,0,16.72,9.73,31.97,18.77,50.12,19.43Z"/>
  <circle class="cls-2" cx="297.99" cy="52.74" r="52.74" transform="translate(178.44 330.75) rotate(-76.77)"/>
  <circle class="cls-1" cx="297.99" cy="540.97" r="52.74"/>
</svg>